<mxfile host="app.diagrams.net" agent="Mozilla/5.0 (Windows NT 10.0; Win64; x64) AppleWebKit/537.36 (KHTML, like Gecko) Chrome/118.0.0.0 Safari/537.36" version="27.2.0">
  <diagram name="第 1 页" id="N6TFMFzziJsD8SJ4GxrR">
    <mxGraphModel dx="1206" dy="526" grid="1" gridSize="10" guides="1" tooltips="1" connect="1" arrows="1" fold="1" page="1" pageScale="1" pageWidth="827" pageHeight="1169" math="0" shadow="0">
      <root>
        <mxCell id="0" />
        <mxCell id="1" parent="0" />
        <mxCell id="SpDzLJsOlOCGqAqB04Pd-34" value="" style="rounded=1;whiteSpace=wrap;html=1;shadow=1;" vertex="1" parent="1">
          <mxGeometry x="310" y="290" width="120" height="60" as="geometry" />
        </mxCell>
        <mxCell id="SpDzLJsOlOCGqAqB04Pd-35" value="old_value&lt;div&gt;内存地址A&lt;br&gt;&lt;/div&gt;" style="text;strokeColor=none;align=center;fillColor=none;html=1;verticalAlign=middle;whiteSpace=wrap;rounded=0;" vertex="1" parent="1">
          <mxGeometry x="335" y="305" width="70" height="30" as="geometry" />
        </mxCell>
        <mxCell id="SpDzLJsOlOCGqAqB04Pd-55" style="edgeStyle=orthogonalEdgeStyle;rounded=0;orthogonalLoop=1;jettySize=auto;html=1;entryX=0.5;entryY=0;entryDx=0;entryDy=0;" edge="1" parent="1" target="SpDzLJsOlOCGqAqB04Pd-51">
          <mxGeometry relative="1" as="geometry">
            <mxPoint x="225" y="790" as="sourcePoint" />
          </mxGeometry>
        </mxCell>
        <mxCell id="SpDzLJsOlOCGqAqB04Pd-44" style="edgeStyle=orthogonalEdgeStyle;rounded=0;orthogonalLoop=1;jettySize=auto;html=1;entryX=0.5;entryY=0;entryDx=0;entryDy=0;" edge="1" parent="1" source="SpDzLJsOlOCGqAqB04Pd-38" target="SpDzLJsOlOCGqAqB04Pd-42">
          <mxGeometry relative="1" as="geometry" />
        </mxCell>
        <mxCell id="SpDzLJsOlOCGqAqB04Pd-82" style="edgeStyle=orthogonalEdgeStyle;rounded=0;orthogonalLoop=1;jettySize=auto;html=1;exitX=0.5;exitY=0;exitDx=0;exitDy=0;entryX=0.5;entryY=1;entryDx=0;entryDy=0;" edge="1" parent="1" source="SpDzLJsOlOCGqAqB04Pd-38" target="SpDzLJsOlOCGqAqB04Pd-34">
          <mxGeometry relative="1" as="geometry" />
        </mxCell>
        <mxCell id="SpDzLJsOlOCGqAqB04Pd-38" value="" style="shape=process;whiteSpace=wrap;html=1;backgroundOutline=1;fillColor=#CCFFFF;shadow=1;" vertex="1" parent="1">
          <mxGeometry x="280" y="430" width="180" height="70" as="geometry" />
        </mxCell>
        <mxCell id="SpDzLJsOlOCGqAqB04Pd-39" value="CPU&lt;div&gt;记录地址、监视值&lt;/div&gt;" style="text;strokeColor=none;align=center;fillColor=none;html=1;verticalAlign=middle;whiteSpace=wrap;rounded=0;" vertex="1" parent="1">
          <mxGeometry x="314" y="447.5" width="100" height="35" as="geometry" />
        </mxCell>
        <mxCell id="SpDzLJsOlOCGqAqB04Pd-41" value="1、LL读取值" style="text;strokeColor=none;align=center;fillColor=none;html=1;verticalAlign=middle;whiteSpace=wrap;rounded=0;" vertex="1" parent="1">
          <mxGeometry x="290" y="380" width="80" height="20" as="geometry" />
        </mxCell>
        <mxCell id="SpDzLJsOlOCGqAqB04Pd-47" style="edgeStyle=orthogonalEdgeStyle;rounded=0;orthogonalLoop=1;jettySize=auto;html=1;exitX=0;exitY=0.5;exitDx=0;exitDy=0;entryX=0.5;entryY=0;entryDx=0;entryDy=0;" edge="1" parent="1" source="SpDzLJsOlOCGqAqB04Pd-42">
          <mxGeometry relative="1" as="geometry">
            <mxPoint x="225" y="730" as="targetPoint" />
          </mxGeometry>
        </mxCell>
        <mxCell id="SpDzLJsOlOCGqAqB04Pd-64" style="edgeStyle=orthogonalEdgeStyle;rounded=0;orthogonalLoop=1;jettySize=auto;html=1;exitX=1;exitY=0.5;exitDx=0;exitDy=0;entryX=0.5;entryY=0;entryDx=0;entryDy=0;" edge="1" parent="1" source="SpDzLJsOlOCGqAqB04Pd-42" target="SpDzLJsOlOCGqAqB04Pd-56">
          <mxGeometry relative="1" as="geometry" />
        </mxCell>
        <mxCell id="SpDzLJsOlOCGqAqB04Pd-42" value="" style="rhombus;whiteSpace=wrap;html=1;fillColor=#CCCCFF;shadow=1;" vertex="1" parent="1">
          <mxGeometry x="310" y="580" width="120" height="110" as="geometry" />
        </mxCell>
        <mxCell id="SpDzLJsOlOCGqAqB04Pd-43" value="检查A是否仍被&lt;div&gt;当前线程标记&lt;/div&gt;" style="text;strokeColor=none;align=center;fillColor=none;html=1;verticalAlign=middle;whiteSpace=wrap;rounded=0;" vertex="1" parent="1">
          <mxGeometry x="327.5" y="620" width="85" height="30" as="geometry" />
        </mxCell>
        <mxCell id="SpDzLJsOlOCGqAqB04Pd-48" value="未被修改" style="text;strokeColor=none;align=center;fillColor=none;html=1;verticalAlign=middle;whiteSpace=wrap;rounded=0;" vertex="1" parent="1">
          <mxGeometry x="224" y="610" width="56" height="20" as="geometry" />
        </mxCell>
        <mxCell id="SpDzLJsOlOCGqAqB04Pd-51" value="" style="rounded=1;whiteSpace=wrap;html=1;shadow=1;fillColor=#CCFFCC;" vertex="1" parent="1">
          <mxGeometry x="165" y="850" width="120" height="60" as="geometry" />
        </mxCell>
        <mxCell id="SpDzLJsOlOCGqAqB04Pd-52" value="返回success" style="text;strokeColor=none;align=center;fillColor=none;html=1;verticalAlign=middle;whiteSpace=wrap;rounded=0;" vertex="1" parent="1">
          <mxGeometry x="190" y="870" width="70" height="20" as="geometry" />
        </mxCell>
        <mxCell id="SpDzLJsOlOCGqAqB04Pd-65" style="edgeStyle=orthogonalEdgeStyle;rounded=0;orthogonalLoop=1;jettySize=auto;html=1;exitX=1;exitY=0.5;exitDx=0;exitDy=0;" edge="1" parent="1" source="SpDzLJsOlOCGqAqB04Pd-56">
          <mxGeometry relative="1" as="geometry">
            <mxPoint x="430" y="630" as="targetPoint" />
            <Array as="points">
              <mxPoint x="600" y="760" />
              <mxPoint x="600" y="580" />
              <mxPoint x="430" y="580" />
            </Array>
          </mxGeometry>
        </mxCell>
        <mxCell id="SpDzLJsOlOCGqAqB04Pd-56" value="" style="rounded=1;whiteSpace=wrap;html=1;shadow=1;fillColor=#FFE6CC;" vertex="1" parent="1">
          <mxGeometry x="470" y="730" width="120" height="60" as="geometry" />
        </mxCell>
        <mxCell id="SpDzLJsOlOCGqAqB04Pd-58" value="已修改" style="text;strokeColor=none;align=center;fillColor=none;html=1;verticalAlign=middle;whiteSpace=wrap;rounded=0;" vertex="1" parent="1">
          <mxGeometry x="490" y="610" width="40" height="20" as="geometry" />
        </mxCell>
        <mxCell id="SpDzLJsOlOCGqAqB04Pd-59" value="写入失败&lt;div&gt;返回fail&lt;/div&gt;" style="text;strokeColor=none;align=center;fillColor=none;html=1;verticalAlign=middle;whiteSpace=wrap;rounded=0;" vertex="1" parent="1">
          <mxGeometry x="500" y="745" width="60" height="30" as="geometry" />
        </mxCell>
        <mxCell id="SpDzLJsOlOCGqAqB04Pd-60" value="3、SC写入值" style="text;strokeColor=none;align=center;fillColor=none;html=1;verticalAlign=middle;whiteSpace=wrap;rounded=0;" vertex="1" parent="1">
          <mxGeometry x="290" y="530" width="80" height="20" as="geometry" />
        </mxCell>
        <mxCell id="SpDzLJsOlOCGqAqB04Pd-66" value="失败重试" style="text;strokeColor=none;align=center;fillColor=none;html=1;verticalAlign=middle;whiteSpace=wrap;rounded=0;" vertex="1" parent="1">
          <mxGeometry x="540" y="560" width="60" height="20" as="geometry" />
        </mxCell>
        <mxCell id="SpDzLJsOlOCGqAqB04Pd-80" style="edgeStyle=orthogonalEdgeStyle;rounded=0;orthogonalLoop=1;jettySize=auto;html=1;exitX=0.5;exitY=1;exitDx=0;exitDy=0;entryX=1;entryY=0.5;entryDx=0;entryDy=0;" edge="1" parent="1" source="SpDzLJsOlOCGqAqB04Pd-71" target="SpDzLJsOlOCGqAqB04Pd-38">
          <mxGeometry relative="1" as="geometry" />
        </mxCell>
        <mxCell id="SpDzLJsOlOCGqAqB04Pd-71" value="" style="rounded=1;whiteSpace=wrap;html=1;shadow=1;" vertex="1" parent="1">
          <mxGeometry x="465" y="290" width="190" height="60" as="geometry" />
        </mxCell>
        <mxCell id="SpDzLJsOlOCGqAqB04Pd-72" value="2、计算新值&lt;div&gt;new_value = old_value + 1&lt;/div&gt;" style="text;strokeColor=none;align=center;fillColor=none;html=1;verticalAlign=middle;whiteSpace=wrap;rounded=0;" vertex="1" parent="1">
          <mxGeometry x="480" y="305" width="160" height="30" as="geometry" />
        </mxCell>
        <mxCell id="SpDzLJsOlOCGqAqB04Pd-74" value="" style="rounded=1;whiteSpace=wrap;html=1;fillColor=#CCFFCC;shadow=1;" vertex="1" parent="1">
          <mxGeometry x="165" y="730" width="120" height="60" as="geometry" />
        </mxCell>
        <mxCell id="SpDzLJsOlOCGqAqB04Pd-75" value="写入新值&lt;div&gt;new_value&lt;/div&gt;" style="text;strokeColor=none;align=center;fillColor=none;html=1;verticalAlign=middle;whiteSpace=wrap;rounded=0;" vertex="1" parent="1">
          <mxGeometry x="185" y="745" width="70" height="30" as="geometry" />
        </mxCell>
      </root>
    </mxGraphModel>
  </diagram>
</mxfile>
